<svg width="24" height="25" viewBox="0 0 24 25" fill="none" xmlns="http://www.w3.org/2000/svg">
<path d="M20.2506 22.9766H20.2503L3.75027 22.9766L3.74996 22.9766C3.53748 22.9793 3.32705 22.9347 3.13398 22.8459C2.94092 22.7571 2.77008 22.6264 2.63388 22.4633L2.63387 22.4632C2.33401 22.1048 2.21259 21.6146 2.30239 21.1179L2.3024 21.1179C2.69683 18.9298 3.92767 17.0916 5.86327 15.8008C7.58316 14.6546 9.76246 14.0234 12.0003 14.0234C14.2381 14.0234 16.4174 14.6551 18.1373 15.8008C20.0729 17.0912 21.3037 18.9293 21.6981 21.1174C21.7879 21.6142 21.6665 22.1043 21.3667 22.4628L21.3666 22.4628C21.2305 22.626 21.0597 22.7568 20.8666 22.8457C20.6735 22.9346 20.4631 22.9793 20.2506 22.9766ZM12.0003 2.02344C13.4003 2.02344 14.668 2.5633 15.5756 3.54311C16.4943 4.53505 16.9424 5.87056 16.8364 7.30358C16.6257 10.159 14.4568 12.4766 12.0003 12.4766C9.54369 12.4766 7.3711 10.1585 7.16364 7.30268C7.05907 5.8564 7.50444 4.51811 8.41745 3.53375C9.3207 2.56009 10.5926 2.02344 12.0003 2.02344Z" fill="#232321" stroke="#232321" stroke-width="0.046875"/>
</svg>
