<svg width="136" height="39" viewBox="0 0 136 39" fill="none" xmlns="http://www.w3.org/2000/svg">
<g clip-path="url(#clip0_409_265)">
<path d="M34.3744 39.0002C34.0327 39.0002 33.7375 38.8557 33.489 38.5668C33.2405 38.2779 33.1162 37.9349 33.1162 37.5377V2.546C33.1162 2.14877 33.2405 1.80572 33.489 1.51683C33.7375 1.22794 34.0327 1.0835 34.3744 1.0835H43.8808C44.2225 1.0835 44.5177 1.22794 44.7662 1.51683C45.0147 1.80572 45.139 2.14877 45.139 2.546V37.5377C45.139 37.9349 45.0147 38.2779 44.7662 38.5668C44.5177 38.8557 44.2225 39.0002 43.8808 39.0002H34.3744Z" fill="#232321"/>
<path d="M1.7582 38.4582C1.41647 38.4582 1.12133 38.3137 0.872799 38.0248C0.624266 37.7359 0.5 37.3929 0.5 36.9957V2.004C0.5 1.60678 0.624266 1.26373 0.872799 0.974837C1.12133 0.685948 1.41647 0.541504 1.7582 0.541504H10.6588C11.0005 0.541504 11.2956 0.685948 11.5442 0.974837C11.7927 1.26373 11.917 1.60678 11.917 2.004V12.729L17.1828 1.73317C17.3381 1.44428 17.5608 1.17345 17.8611 0.920671C18.1562 0.667893 18.5497 0.541504 19.0468 0.541504H29.3454C29.625 0.541504 29.8631 0.661874 30.0702 0.890578C30.2722 1.1253 30.3706 1.40215 30.3706 1.73317C30.3706 1.94984 30.324 2.14845 30.2308 2.329L21.8428 18.6873L31.023 36.6707C31.1162 36.8151 31.1628 37.0137 31.1628 37.2665C31.1628 37.5915 31.0592 37.8744 30.8624 38.1091C30.6605 38.3438 30.4223 38.4582 30.1376 38.4582H19.5128C18.8914 38.4582 18.4306 38.2896 18.1407 37.9406C17.8455 37.5975 17.6643 37.3568 17.6022 37.2123L11.917 25.404V36.9957C11.917 37.3929 11.7927 37.7359 11.5442 38.0248C11.2956 38.3137 11.0005 38.4582 10.6588 38.4582H1.7582Z" fill="#232321"/>
<path d="M62.5404 39C59.558 39 56.9173 38.4944 54.6184 37.4833C52.3195 36.4722 50.4917 34.8833 49.1403 32.7167C47.7889 30.55 47.0485 27.7514 46.9294 24.3208C46.8983 22.8403 46.8828 21.2514 46.8828 19.5542C46.8828 17.8569 46.8983 16.2319 46.9294 14.6792C47.0537 11.3208 47.8045 8.55833 49.1869 6.39167C50.5694 4.225 52.4178 2.61806 54.7323 1.57083C57.0468 0.523611 59.6512 0 62.5404 0C64.5287 0 66.4444 0.264815 68.2981 0.782407C70.1465 1.30602 71.8138 2.13056 73.305 3.25C74.7962 4.36944 75.9819 5.80787 76.8673 7.55324C77.7527 9.30463 78.2083 11.4111 78.2446 13.8667C78.2446 14.1917 78.141 14.4745 77.9443 14.7093C77.7423 14.944 77.5041 15.0583 77.2194 15.0583H67.713C67.2159 15.0583 66.8483 14.944 66.6153 14.7093C66.3823 14.4745 66.1752 14.0713 65.9888 13.4875C65.6471 12.3319 65.1811 11.5556 64.5908 11.1583C64.0005 10.7611 63.3015 10.5625 62.4938 10.5625C61.4686 10.5625 60.6505 10.8815 60.0447 11.5134C59.4389 12.1454 59.1023 13.2949 59.0402 14.95C58.947 17.9111 58.947 20.9444 59.0402 24.05C59.1023 25.7111 59.4389 26.8606 60.0447 27.4866C60.6505 28.1185 61.4686 28.4375 62.4938 28.4375C63.3015 28.4375 64.0057 28.2208 64.6115 27.7875C65.2173 27.3542 65.6729 26.5958 65.9888 25.5125C66.1441 24.8986 66.3461 24.4833 66.5946 24.2667C66.8431 24.05 67.2159 23.9417 67.713 23.9417H77.2194C77.499 23.9417 77.7372 24.062 77.9443 24.2907C78.1462 24.5255 78.2446 24.8023 78.2446 25.1333C78.2135 27.5889 77.7579 29.6954 76.8673 31.4468C75.9819 33.1981 74.7962 34.6366 73.305 35.75C71.8138 36.8694 70.1414 37.694 68.2981 38.2116C66.4444 38.7352 64.5287 39 62.5404 39Z" fill="#232321"/>
<path d="M105.774 36.6707L96.5937 18.6873L104.982 2.329C105.075 2.14845 105.122 1.94984 105.122 1.73317C105.122 1.40817 105.023 1.13132 104.821 0.896596C104.619 0.661874 104.376 0.541504 104.096 0.541504H93.7978C93.3007 0.541504 92.9072 0.667893 92.612 0.920671C92.3169 1.17345 92.0891 1.44428 91.9338 1.73317L87.2738 11.4651L86.668 12.729V2.004C86.668 1.60678 86.5437 1.26373 86.2952 0.974837C86.0466 0.685948 85.7515 0.541504 85.4098 0.541504H76.5092C76.1674 0.541504 75.8723 0.685948 75.6238 0.974837C75.5927 1.01697 75.5616 1.05308 75.5306 1.09521C75.4995 1.13734 75.4736 1.17947 75.4529 1.2216C75.427 1.26373 75.4063 1.31187 75.3856 1.354C75.3649 1.40215 75.3494 1.44428 75.3338 1.49243C76.9389 2.77437 78.2541 4.39937 79.2327 6.33734C80.2941 8.44382 80.8533 10.9656 80.8896 13.8304C80.8896 14.8234 80.5685 15.7262 79.9835 16.4123C79.3932 17.0924 78.6165 17.4656 77.7933 17.4656H75.251V21.5341H77.7933C78.6165 21.5341 79.3932 21.9072 79.9783 22.5873C80.5685 23.2795 80.8896 24.1822 80.8896 25.1332C80.8533 28.0341 80.2941 30.5559 79.2327 32.6623C78.2541 34.6003 76.9389 36.2253 75.3338 37.5072C75.3494 37.5554 75.3649 37.6035 75.3856 37.6457C75.427 37.7359 75.4736 37.8262 75.5306 37.9045C75.5616 37.9466 75.5927 37.9827 75.6238 38.0248C75.8723 38.3137 76.1674 38.4582 76.5092 38.4582H85.4098C85.7515 38.4582 86.0466 38.3137 86.2952 38.0248C86.5437 37.7359 86.668 37.3929 86.668 36.9957V25.404L87.2738 26.6619L92.3532 37.2123C92.4153 37.3568 92.5965 37.6035 92.8916 37.9466C93.1868 38.2896 93.6424 38.4582 94.2638 38.4582H104.889C105.168 38.4582 105.411 38.3438 105.613 38.1091C105.815 37.8744 105.914 37.5915 105.914 37.2665C105.914 37.0137 105.867 36.8151 105.774 36.6707Z" fill="#232321"/>
<path d="M120.029 39C116.58 39 113.738 38.4583 111.501 37.375C109.264 36.2917 107.586 34.8653 106.468 33.0958C105.35 31.3264 104.759 29.4486 104.697 27.4625C104.697 27.1375 104.796 26.8606 104.998 26.6199C105.2 26.3852 105.438 26.2708 105.717 26.2708H114.571C115.068 26.2708 115.446 26.3491 115.716 26.5116C115.98 26.6741 116.264 26.9028 116.58 27.1856C116.891 27.4384 117.207 27.6671 117.533 27.8597C117.859 28.0583 118.232 28.2028 118.651 28.2931C119.071 28.3833 119.526 28.4315 120.029 28.4315C121.085 28.4315 121.929 28.2931 122.566 28.0222C123.203 27.7514 123.524 27.3843 123.524 26.9148C123.524 26.4815 123.342 26.1204 122.985 25.8315C122.628 25.5426 122.012 25.2838 121.142 25.0491C120.272 24.8144 119.06 24.5856 117.507 24.375C115.053 23.9778 112.925 23.3097 111.123 22.3708C109.321 21.4319 107.928 20.144 106.955 18.4949C105.976 16.8519 105.489 14.8356 105.489 12.4523C105.489 9.99676 106.085 7.83009 107.281 5.95231C108.477 4.07454 110.139 2.61204 112.267 1.56481C114.395 0.523611 116.875 0 119.702 0C122.032 0 124.098 0.349074 125.9 1.05324C127.702 1.75741 129.224 2.67824 130.467 3.81574C131.71 4.95324 132.657 6.175 133.31 7.475C133.962 8.775 134.304 10.0208 134.335 11.2125C134.335 11.5375 134.231 11.8204 134.035 12.0551C133.833 12.2898 133.605 12.4042 133.356 12.4042H124.036C123.601 12.4042 123.249 12.3319 122.99 12.1875C122.726 12.0431 122.452 11.8264 122.172 11.5375C122.017 11.3569 121.727 11.1523 121.308 10.9116C120.888 10.6769 120.355 10.5625 119.697 10.5625C118.921 10.5625 118.351 10.7009 117.999 10.9718C117.642 11.2426 117.46 11.6157 117.46 12.0792C117.46 12.4042 117.6 12.7111 117.88 13C118.159 13.2889 118.672 13.5417 119.418 13.7583C120.163 13.975 121.235 14.1917 122.633 14.4083C125.74 14.8417 128.23 15.5398 130.115 16.4907C131.994 17.4477 133.361 18.7236 134.216 20.3125C135.07 21.9014 135.5 23.8694 135.5 26.2167C135.5 28.8528 134.822 31.1278 133.47 33.0417C132.119 34.9556 130.275 36.4241 127.945 37.4532C125.615 38.4824 122.98 39 120.029 39Z" fill="#232321"/>
</g>
<defs>
<clipPath id="clip0_409_265">
<rect width="135" height="39" fill="white" transform="translate(0.5)"/>
</clipPath>
</defs>
</svg>
