<svg width="28" height="29" viewBox="0 0 28 29" fill="none" xmlns="http://www.w3.org/2000/svg">
<path d="M19.8109 18.3851L19.7987 18.4014L19.8131 18.4158L24.9582 23.5609C25.1868 23.8168 25.3088 24.1505 25.2992 24.4935C25.2896 24.8368 25.1489 25.1633 24.9061 25.4061C24.6633 25.6489 24.3368 25.7896 23.9935 25.7992C23.6505 25.8088 23.3168 25.6868 23.0609 25.4582L17.9158 20.3131L17.9014 20.2987L17.8851 20.3109C16.24 21.5467 14.2376 22.2138 12.18 22.2116C6.92435 22.2116 2.64844 17.9356 2.64844 12.68C2.64844 7.42435 6.92435 3.14844 12.18 3.14844C17.4356 3.14844 21.7116 7.42435 21.7116 12.68C21.7138 14.7376 21.0467 16.74 19.8109 18.3851ZM5.33156 12.68V12.68C5.33374 14.4957 6.05597 16.2363 7.33982 17.5202C8.62368 18.804 10.3643 19.5263 12.18 19.5284C13.5345 19.5284 14.8586 19.1268 15.9848 18.3743C17.111 17.6218 17.9888 16.5522 18.5071 15.3008C19.0255 14.0494 19.1611 12.6724 18.8968 11.3439C18.6326 10.0155 17.9803 8.79519 17.0226 7.83742C16.0648 6.87965 14.8445 6.2274 13.5161 5.96315C12.1876 5.6989 10.8106 5.83453 9.55922 6.35287C8.30783 6.87121 7.23825 7.74899 6.48573 8.87521C5.73322 10.0014 5.33156 11.3255 5.33156 12.68Z" fill="#232321" stroke="#232321" stroke-width="0.046875"/>
</svg>
